G04 #@! TF.FileFunction,Copper,L1,Top,Signal*
%FSLAX46Y46*%
G04 Gerber Fmt 4.6, Leading zero omitted, Abs format (unit mm)*
G04 Created by KiCad (PCBNEW 4.0.6-e0-6349~53~ubuntu14.04.1) date Wed May 10 06:37:38 2017*
%MOMM*%
%LPD*%
G01*
G04 APERTURE LIST*
%ADD10C,0.100000*%
%ADD11R,2.000000X2.000000*%
%ADD12R,2.000000X1.700000*%
%ADD13O,2.000000X1.700000*%
%ADD14O,2.000000X4.000000*%
%ADD15O,4.000000X2.000000*%
%ADD16R,4.000000X2.000000*%
%ADD17C,4.064000*%
%ADD18C,1.200000*%
%ADD19C,1.000000*%
G04 APERTURE END LIST*
D10*
D11*
X139250000Y-108750000D03*
D12*
X128250000Y-109500000D03*
D13*
X128250000Y-112040000D03*
D14*
X185000000Y-98000000D03*
X187540000Y-98000000D03*
X190080000Y-98000000D03*
X192620000Y-98000000D03*
X195160000Y-98000000D03*
D15*
X184000000Y-57500000D03*
X184000000Y-60040000D03*
X184000000Y-62580000D03*
X184000000Y-65120000D03*
X184000000Y-67660000D03*
X184000000Y-70200000D03*
X184000000Y-72740000D03*
X184000000Y-75280000D03*
X152500000Y-69000000D03*
X152500000Y-66460000D03*
X152500000Y-63920000D03*
X152500000Y-61380000D03*
X152500000Y-58840000D03*
X159000000Y-69000000D03*
X159000000Y-66460000D03*
X159000000Y-63920000D03*
X159000000Y-61380000D03*
X159000000Y-58840000D03*
X165500000Y-69000000D03*
X165500000Y-66460000D03*
X165500000Y-63920000D03*
X165500000Y-61380000D03*
X165500000Y-58840000D03*
X172000000Y-69000000D03*
X172000000Y-66460000D03*
X172000000Y-63920000D03*
X172000000Y-61380000D03*
X172000000Y-58840000D03*
D14*
X193500000Y-105000000D03*
X190960000Y-105000000D03*
X188420000Y-105000000D03*
X185880000Y-105000000D03*
X132750000Y-103000000D03*
X135290000Y-103000000D03*
X137830000Y-103000000D03*
X140370000Y-103000000D03*
D16*
X170000000Y-119250000D03*
D15*
X170000000Y-116710000D03*
X170000000Y-114170000D03*
X170000000Y-111630000D03*
X170000000Y-109090000D03*
X170000000Y-106550000D03*
X170000000Y-104010000D03*
X170000000Y-101470000D03*
X170000000Y-98930000D03*
X170000000Y-96390000D03*
X170000000Y-93850000D03*
X170000000Y-91310000D03*
X170000000Y-88770000D03*
X170000000Y-86230000D03*
X170000000Y-83690000D03*
X154760000Y-83690000D03*
X154760000Y-86230000D03*
X154760000Y-88770000D03*
X154760000Y-91310000D03*
X154760000Y-93850000D03*
X154760000Y-96390000D03*
X154760000Y-98930000D03*
X154760000Y-101470000D03*
X154760000Y-104010000D03*
X154760000Y-106550000D03*
X154760000Y-109090000D03*
X154760000Y-111630000D03*
X154760000Y-114170000D03*
X154760000Y-116710000D03*
X154760000Y-119250000D03*
D16*
X142000000Y-72000000D03*
D15*
X134380000Y-54220000D03*
X142000000Y-69460000D03*
X134380000Y-56760000D03*
X142000000Y-66920000D03*
X134380000Y-59300000D03*
X142000000Y-64380000D03*
X134380000Y-61840000D03*
X142000000Y-61840000D03*
X134380000Y-64380000D03*
X142000000Y-59300000D03*
X134380000Y-66920000D03*
X142000000Y-56760000D03*
X134380000Y-69460000D03*
X142000000Y-54220000D03*
X134380000Y-72000000D03*
D17*
X196500000Y-122500000D03*
X196500000Y-52500000D03*
X126500000Y-52500000D03*
X126500000Y-122500000D03*
D18*
X192500000Y-86250000D03*
D19*
X170000000Y-86230000D02*
X192480000Y-86230000D01*
X192480000Y-86230000D02*
X192500000Y-86250000D01*
X154760000Y-91310000D02*
X160440000Y-91310000D01*
X165520000Y-86230000D02*
X170000000Y-86230000D01*
X160440000Y-91310000D02*
X165520000Y-86230000D01*
X190080000Y-98000000D02*
X190080000Y-99920000D01*
X190080000Y-99920000D02*
X188500000Y-101500000D01*
X185880000Y-102620000D02*
X185880000Y-105000000D01*
X187000000Y-101500000D02*
X185880000Y-102620000D01*
X188500000Y-101500000D02*
X187000000Y-101500000D01*
X154760000Y-96390000D02*
X151390000Y-96390000D01*
X132240000Y-56760000D02*
X134380000Y-56760000D01*
X130250000Y-58750000D02*
X132240000Y-56760000D01*
X130250000Y-73750000D02*
X130250000Y-58750000D01*
X132500000Y-76000000D02*
X130250000Y-73750000D01*
X142000000Y-76000000D02*
X132500000Y-76000000D01*
X147500000Y-81500000D02*
X142000000Y-76000000D01*
X147500000Y-92500000D02*
X147500000Y-81500000D01*
X151390000Y-96390000D02*
X147500000Y-92500000D01*
X134380000Y-54220000D02*
X132030000Y-54220000D01*
X150680000Y-98930000D02*
X154760000Y-98930000D01*
X145750000Y-94000000D02*
X150680000Y-98930000D01*
X145750000Y-82000002D02*
X145750000Y-94000000D01*
X141499998Y-77750000D02*
X145750000Y-82000002D01*
X131250000Y-77750000D02*
X141499998Y-77750000D01*
X128250000Y-74750000D02*
X131250000Y-77750000D01*
X128250000Y-58000000D02*
X128250000Y-74750000D01*
X132030000Y-54220000D02*
X128250000Y-58000000D01*
X184000000Y-75280000D02*
X175970000Y-75280000D01*
X152350000Y-93850000D02*
X154760000Y-93850000D01*
X150000000Y-91500000D02*
X152350000Y-93850000D01*
X150000000Y-82500000D02*
X150000000Y-91500000D01*
X152000000Y-80500000D02*
X150000000Y-82500000D01*
X170750000Y-80500000D02*
X152000000Y-80500000D01*
X175970000Y-75280000D02*
X170750000Y-80500000D01*
M02*
