M48
;DRILL file {KiCad 4.0.6-e0-6349~53~ubuntu14.04.1} date Sat Feb 25 13:50:44 2017
;FORMAT={-:-/ absolute / metric / decimal}
FMAT,2
METRIC,TZ
T1C0.600
T2C0.800
T3C3.048
%
G90
G05
M71
T1
X192.5Y-86.25
T2
X128.25Y-109.5
X128.25Y-112.04
X132.75Y-103.
X134.38Y-54.22
X134.38Y-56.76
X134.38Y-59.3
X134.38Y-61.84
X134.38Y-64.38
X134.38Y-66.92
X134.38Y-69.46
X134.38Y-72.
X135.29Y-103.
X137.83Y-103.
X139.25Y-108.75
X140.37Y-103.
X142.Y-54.22
X142.Y-56.76
X142.Y-59.3
X142.Y-61.84
X142.Y-64.38
X142.Y-66.92
X142.Y-69.46
X142.Y-72.
X152.5Y-58.84
X152.5Y-61.38
X152.5Y-63.92
X152.5Y-66.46
X152.5Y-69.
X154.76Y-83.69
X154.76Y-86.23
X154.76Y-88.77
X154.76Y-91.31
X154.76Y-93.85
X154.76Y-96.39
X154.76Y-98.93
X154.76Y-101.47
X154.76Y-104.01
X154.76Y-106.55
X154.76Y-109.09
X154.76Y-111.63
X154.76Y-114.17
X154.76Y-116.71
X154.76Y-119.25
X159.Y-58.84
X159.Y-61.38
X159.Y-63.92
X159.Y-66.46
X159.Y-69.
X165.5Y-58.84
X165.5Y-61.38
X165.5Y-63.92
X165.5Y-66.46
X165.5Y-69.
X170.Y-83.69
X170.Y-86.23
X170.Y-88.77
X170.Y-91.31
X170.Y-93.85
X170.Y-96.39
X170.Y-98.93
X170.Y-101.47
X170.Y-104.01
X170.Y-106.55
X170.Y-109.09
X170.Y-111.63
X170.Y-114.17
X170.Y-116.71
X170.Y-119.25
X172.Y-58.84
X172.Y-61.38
X172.Y-63.92
X172.Y-66.46
X172.Y-69.
X184.Y-57.5
X184.Y-60.04
X184.Y-62.58
X184.Y-65.12
X184.Y-67.66
X184.Y-70.2
X184.Y-72.74
X184.Y-75.28
X185.Y-98.
X185.88Y-105.
X187.54Y-98.
X188.42Y-105.
X190.08Y-98.
X190.96Y-105.
X192.62Y-98.
X193.5Y-105.
X195.16Y-98.
T3
X126.5Y-52.5
X126.5Y-122.5
X196.5Y-52.5
X196.5Y-122.5
T0
M30
