G04 #@! TF.FileFunction,Other,ECO1*
%FSLAX46Y46*%
G04 Gerber Fmt 4.6, Leading zero omitted, Abs format (unit mm)*
G04 Created by KiCad (PCBNEW 4.0.6-e0-6349~53~ubuntu14.04.1) date Wed May 10 06:37:38 2017*
%MOMM*%
%LPD*%
G01*
G04 APERTURE LIST*
%ADD10C,0.100000*%
%ADD11C,0.300000*%
%ADD12C,0.200000*%
G04 APERTURE END LIST*
D10*
D11*
X178107144Y-110842857D02*
X178321430Y-110914286D01*
X178392858Y-110985714D01*
X178464287Y-111128571D01*
X178464287Y-111342857D01*
X178392858Y-111485714D01*
X178321430Y-111557143D01*
X178178572Y-111628571D01*
X177607144Y-111628571D01*
X177607144Y-110128571D01*
X178107144Y-110128571D01*
X178250001Y-110200000D01*
X178321430Y-110271429D01*
X178392858Y-110414286D01*
X178392858Y-110557143D01*
X178321430Y-110700000D01*
X178250001Y-110771429D01*
X178107144Y-110842857D01*
X177607144Y-110842857D01*
X179392858Y-110128571D02*
X179678572Y-110128571D01*
X179821430Y-110200000D01*
X179964287Y-110342857D01*
X180035715Y-110628571D01*
X180035715Y-111128571D01*
X179964287Y-111414286D01*
X179821430Y-111557143D01*
X179678572Y-111628571D01*
X179392858Y-111628571D01*
X179250001Y-111557143D01*
X179107144Y-111414286D01*
X179035715Y-111128571D01*
X179035715Y-110628571D01*
X179107144Y-110342857D01*
X179250001Y-110200000D01*
X179392858Y-110128571D01*
X180607144Y-111557143D02*
X180821430Y-111628571D01*
X181178573Y-111628571D01*
X181321430Y-111557143D01*
X181392859Y-111485714D01*
X181464287Y-111342857D01*
X181464287Y-111200000D01*
X181392859Y-111057143D01*
X181321430Y-110985714D01*
X181178573Y-110914286D01*
X180892859Y-110842857D01*
X180750001Y-110771429D01*
X180678573Y-110700000D01*
X180607144Y-110557143D01*
X180607144Y-110414286D01*
X180678573Y-110271429D01*
X180750001Y-110200000D01*
X180892859Y-110128571D01*
X181250001Y-110128571D01*
X181464287Y-110200000D01*
X182964287Y-111485714D02*
X182892858Y-111557143D01*
X182678572Y-111628571D01*
X182535715Y-111628571D01*
X182321430Y-111557143D01*
X182178572Y-111414286D01*
X182107144Y-111271429D01*
X182035715Y-110985714D01*
X182035715Y-110771429D01*
X182107144Y-110485714D01*
X182178572Y-110342857D01*
X182321430Y-110200000D01*
X182535715Y-110128571D01*
X182678572Y-110128571D01*
X182892858Y-110200000D01*
X182964287Y-110271429D01*
X183892858Y-110128571D02*
X184178572Y-110128571D01*
X184321430Y-110200000D01*
X184464287Y-110342857D01*
X184535715Y-110628571D01*
X184535715Y-111128571D01*
X184464287Y-111414286D01*
X184321430Y-111557143D01*
X184178572Y-111628571D01*
X183892858Y-111628571D01*
X183750001Y-111557143D01*
X183607144Y-111414286D01*
X183535715Y-111128571D01*
X183535715Y-110628571D01*
X183607144Y-110342857D01*
X183750001Y-110200000D01*
X183892858Y-110128571D01*
X184964287Y-110128571D02*
X185464287Y-111628571D01*
X185964287Y-110128571D01*
X186464287Y-110842857D02*
X186964287Y-110842857D01*
X187178573Y-111628571D02*
X186464287Y-111628571D01*
X186464287Y-110128571D01*
X187178573Y-110128571D01*
X188678573Y-111628571D02*
X188178573Y-110914286D01*
X187821430Y-111628571D02*
X187821430Y-110128571D01*
X188392858Y-110128571D01*
X188535716Y-110200000D01*
X188607144Y-110271429D01*
X188678573Y-110414286D01*
X188678573Y-110628571D01*
X188607144Y-110771429D01*
X188535716Y-110842857D01*
X188392858Y-110914286D01*
X187821430Y-110914286D01*
X189607144Y-110914286D02*
X189607144Y-111628571D01*
X189107144Y-110128571D02*
X189607144Y-110914286D01*
X190107144Y-110128571D01*
X191678572Y-111557143D02*
X191892858Y-111628571D01*
X192250001Y-111628571D01*
X192392858Y-111557143D01*
X192464287Y-111485714D01*
X192535715Y-111342857D01*
X192535715Y-111200000D01*
X192464287Y-111057143D01*
X192392858Y-110985714D01*
X192250001Y-110914286D01*
X191964287Y-110842857D01*
X191821429Y-110771429D01*
X191750001Y-110700000D01*
X191678572Y-110557143D01*
X191678572Y-110414286D01*
X191750001Y-110271429D01*
X191821429Y-110200000D01*
X191964287Y-110128571D01*
X192321429Y-110128571D01*
X192535715Y-110200000D01*
X193107143Y-111200000D02*
X193821429Y-111200000D01*
X192964286Y-111628571D02*
X193464286Y-110128571D01*
X193964286Y-111628571D01*
X194250000Y-110128571D02*
X195107143Y-110128571D01*
X194678572Y-111628571D02*
X194678572Y-110128571D01*
X177964285Y-114035714D02*
X177892856Y-114107143D01*
X177678570Y-114178571D01*
X177535713Y-114178571D01*
X177321428Y-114107143D01*
X177178570Y-113964286D01*
X177107142Y-113821429D01*
X177035713Y-113535714D01*
X177035713Y-113321429D01*
X177107142Y-113035714D01*
X177178570Y-112892857D01*
X177321428Y-112750000D01*
X177535713Y-112678571D01*
X177678570Y-112678571D01*
X177892856Y-112750000D01*
X177964285Y-112821429D01*
X178892856Y-112678571D02*
X179178570Y-112678571D01*
X179321428Y-112750000D01*
X179464285Y-112892857D01*
X179535713Y-113178571D01*
X179535713Y-113678571D01*
X179464285Y-113964286D01*
X179321428Y-114107143D01*
X179178570Y-114178571D01*
X178892856Y-114178571D01*
X178749999Y-114107143D01*
X178607142Y-113964286D01*
X178535713Y-113678571D01*
X178535713Y-113178571D01*
X178607142Y-112892857D01*
X178749999Y-112750000D01*
X178892856Y-112678571D01*
X180178571Y-114178571D02*
X180178571Y-112678571D01*
X181035714Y-114178571D01*
X181035714Y-112678571D01*
X181535714Y-112678571D02*
X182392857Y-112678571D01*
X181964286Y-114178571D02*
X181964286Y-112678571D01*
X183750000Y-114178571D02*
X183250000Y-113464286D01*
X182892857Y-114178571D02*
X182892857Y-112678571D01*
X183464285Y-112678571D01*
X183607143Y-112750000D01*
X183678571Y-112821429D01*
X183750000Y-112964286D01*
X183750000Y-113178571D01*
X183678571Y-113321429D01*
X183607143Y-113392857D01*
X183464285Y-113464286D01*
X182892857Y-113464286D01*
X184678571Y-112678571D02*
X184964285Y-112678571D01*
X185107143Y-112750000D01*
X185250000Y-112892857D01*
X185321428Y-113178571D01*
X185321428Y-113678571D01*
X185250000Y-113964286D01*
X185107143Y-114107143D01*
X184964285Y-114178571D01*
X184678571Y-114178571D01*
X184535714Y-114107143D01*
X184392857Y-113964286D01*
X184321428Y-113678571D01*
X184321428Y-113178571D01*
X184392857Y-112892857D01*
X184535714Y-112750000D01*
X184678571Y-112678571D01*
X186678572Y-114178571D02*
X185964286Y-114178571D01*
X185964286Y-112678571D01*
X188250000Y-114107143D02*
X188464286Y-114178571D01*
X188821429Y-114178571D01*
X188964286Y-114107143D01*
X189035715Y-114035714D01*
X189107143Y-113892857D01*
X189107143Y-113750000D01*
X189035715Y-113607143D01*
X188964286Y-113535714D01*
X188821429Y-113464286D01*
X188535715Y-113392857D01*
X188392857Y-113321429D01*
X188321429Y-113250000D01*
X188250000Y-113107143D01*
X188250000Y-112964286D01*
X188321429Y-112821429D01*
X188392857Y-112750000D01*
X188535715Y-112678571D01*
X188892857Y-112678571D01*
X189107143Y-112750000D01*
X189750000Y-114178571D02*
X189750000Y-112678571D01*
X189750000Y-113392857D02*
X190607143Y-113392857D01*
X190607143Y-114178571D02*
X190607143Y-112678571D01*
X191321429Y-114178571D02*
X191321429Y-112678571D01*
X192035715Y-113392857D02*
X192535715Y-113392857D01*
X192750001Y-114178571D02*
X192035715Y-114178571D01*
X192035715Y-112678571D01*
X192750001Y-112678571D01*
X194107144Y-114178571D02*
X193392858Y-114178571D01*
X193392858Y-112678571D01*
X194607144Y-114178571D02*
X194607144Y-112678571D01*
X194964287Y-112678571D01*
X195178572Y-112750000D01*
X195321430Y-112892857D01*
X195392858Y-113035714D01*
X195464287Y-113321429D01*
X195464287Y-113535714D01*
X195392858Y-113821429D01*
X195321430Y-113964286D01*
X195178572Y-114107143D01*
X194964287Y-114178571D01*
X194607144Y-114178571D01*
X176750001Y-115228571D02*
X177250001Y-116728571D01*
X177750001Y-115228571D01*
X179035715Y-116728571D02*
X178178572Y-116728571D01*
X178607144Y-116728571D02*
X178607144Y-115228571D01*
X178464287Y-115442857D01*
X178321429Y-115585714D01*
X178178572Y-115657143D01*
X179678572Y-116585714D02*
X179750000Y-116657143D01*
X179678572Y-116728571D01*
X179607143Y-116657143D01*
X179678572Y-116585714D01*
X179678572Y-116728571D01*
X181178572Y-116728571D02*
X180321429Y-116728571D01*
X180750001Y-116728571D02*
X180750001Y-115228571D01*
X180607144Y-115442857D01*
X180464286Y-115585714D01*
X180321429Y-115657143D01*
X181821429Y-116585714D02*
X181892857Y-116657143D01*
X181821429Y-116728571D01*
X181750000Y-116657143D01*
X181821429Y-116585714D01*
X181821429Y-116728571D01*
X182392858Y-115228571D02*
X183321429Y-115228571D01*
X182821429Y-115800000D01*
X183035715Y-115800000D01*
X183178572Y-115871429D01*
X183250001Y-115942857D01*
X183321429Y-116085714D01*
X183321429Y-116442857D01*
X183250001Y-116585714D01*
X183178572Y-116657143D01*
X183035715Y-116728571D01*
X182607143Y-116728571D01*
X182464286Y-116657143D01*
X182392858Y-116585714D01*
X185107143Y-116157143D02*
X186250000Y-116157143D01*
X188607143Y-115942857D02*
X188107143Y-115942857D01*
X188107143Y-116728571D02*
X188107143Y-115228571D01*
X188821429Y-115228571D01*
X189392857Y-115942857D02*
X189892857Y-115942857D01*
X190107143Y-116728571D02*
X189392857Y-116728571D01*
X189392857Y-115228571D01*
X190107143Y-115228571D01*
X191250000Y-115942857D02*
X191464286Y-116014286D01*
X191535714Y-116085714D01*
X191607143Y-116228571D01*
X191607143Y-116442857D01*
X191535714Y-116585714D01*
X191464286Y-116657143D01*
X191321428Y-116728571D01*
X190750000Y-116728571D01*
X190750000Y-115228571D01*
X191250000Y-115228571D01*
X191392857Y-115300000D01*
X191464286Y-115371429D01*
X191535714Y-115514286D01*
X191535714Y-115657143D01*
X191464286Y-115800000D01*
X191392857Y-115871429D01*
X191250000Y-115942857D01*
X190750000Y-115942857D01*
X194178571Y-116728571D02*
X193321428Y-116728571D01*
X193750000Y-116728571D02*
X193750000Y-115228571D01*
X193607143Y-115442857D01*
X193464285Y-115585714D01*
X193321428Y-115657143D01*
X194678571Y-115228571D02*
X195678571Y-115228571D01*
X195035714Y-116728571D01*
X191000001Y-74178571D02*
X192000001Y-74178571D01*
X191000001Y-75678571D01*
X192000001Y-75678571D01*
X196500001Y-71678571D02*
X197500001Y-73178571D01*
X197500001Y-71678571D02*
X196500001Y-73178571D01*
X191500000Y-66964286D02*
X191500000Y-67678571D01*
X191000000Y-66178571D02*
X191500000Y-66964286D01*
X192000000Y-66178571D01*
D12*
X192500000Y-72500000D02*
G75*
G03X192500000Y-72500000I-1000000J0D01*
G01*
X191500000Y-68500000D02*
X190250000Y-69750000D01*
X191500000Y-68500000D02*
X192750000Y-69750000D01*
X195750000Y-72500000D02*
X194750000Y-73500000D01*
X195750000Y-72500000D02*
X194750000Y-71500000D01*
X191500000Y-72500000D02*
X195750000Y-72500000D01*
X191500000Y-68500000D02*
X191500000Y-72500000D01*
D11*
X170857143Y-55607143D02*
X171071429Y-55678571D01*
X171428572Y-55678571D01*
X171571429Y-55607143D01*
X171642858Y-55535714D01*
X171714286Y-55392857D01*
X171714286Y-55250000D01*
X171642858Y-55107143D01*
X171571429Y-55035714D01*
X171428572Y-54964286D01*
X171142858Y-54892857D01*
X171000000Y-54821429D01*
X170928572Y-54750000D01*
X170857143Y-54607143D01*
X170857143Y-54464286D01*
X170928572Y-54321429D01*
X171000000Y-54250000D01*
X171142858Y-54178571D01*
X171500000Y-54178571D01*
X171714286Y-54250000D01*
X173000000Y-54678571D02*
X173000000Y-55678571D01*
X172642857Y-54107143D02*
X172285714Y-55178571D01*
X173214286Y-55178571D01*
X164357143Y-55607143D02*
X164571429Y-55678571D01*
X164928572Y-55678571D01*
X165071429Y-55607143D01*
X165142858Y-55535714D01*
X165214286Y-55392857D01*
X165214286Y-55250000D01*
X165142858Y-55107143D01*
X165071429Y-55035714D01*
X164928572Y-54964286D01*
X164642858Y-54892857D01*
X164500000Y-54821429D01*
X164428572Y-54750000D01*
X164357143Y-54607143D01*
X164357143Y-54464286D01*
X164428572Y-54321429D01*
X164500000Y-54250000D01*
X164642858Y-54178571D01*
X165000000Y-54178571D01*
X165214286Y-54250000D01*
X165714286Y-54178571D02*
X166642857Y-54178571D01*
X166142857Y-54750000D01*
X166357143Y-54750000D01*
X166500000Y-54821429D01*
X166571429Y-54892857D01*
X166642857Y-55035714D01*
X166642857Y-55392857D01*
X166571429Y-55535714D01*
X166500000Y-55607143D01*
X166357143Y-55678571D01*
X165928571Y-55678571D01*
X165785714Y-55607143D01*
X165714286Y-55535714D01*
X157857143Y-55607143D02*
X158071429Y-55678571D01*
X158428572Y-55678571D01*
X158571429Y-55607143D01*
X158642858Y-55535714D01*
X158714286Y-55392857D01*
X158714286Y-55250000D01*
X158642858Y-55107143D01*
X158571429Y-55035714D01*
X158428572Y-54964286D01*
X158142858Y-54892857D01*
X158000000Y-54821429D01*
X157928572Y-54750000D01*
X157857143Y-54607143D01*
X157857143Y-54464286D01*
X157928572Y-54321429D01*
X158000000Y-54250000D01*
X158142858Y-54178571D01*
X158500000Y-54178571D01*
X158714286Y-54250000D01*
X159285714Y-54321429D02*
X159357143Y-54250000D01*
X159500000Y-54178571D01*
X159857143Y-54178571D01*
X160000000Y-54250000D01*
X160071429Y-54321429D01*
X160142857Y-54464286D01*
X160142857Y-54607143D01*
X160071429Y-54821429D01*
X159214286Y-55678571D01*
X160142857Y-55678571D01*
X151357143Y-55607143D02*
X151571429Y-55678571D01*
X151928572Y-55678571D01*
X152071429Y-55607143D01*
X152142858Y-55535714D01*
X152214286Y-55392857D01*
X152214286Y-55250000D01*
X152142858Y-55107143D01*
X152071429Y-55035714D01*
X151928572Y-54964286D01*
X151642858Y-54892857D01*
X151500000Y-54821429D01*
X151428572Y-54750000D01*
X151357143Y-54607143D01*
X151357143Y-54464286D01*
X151428572Y-54321429D01*
X151500000Y-54250000D01*
X151642858Y-54178571D01*
X152000000Y-54178571D01*
X152214286Y-54250000D01*
X153642857Y-55678571D02*
X152785714Y-55678571D01*
X153214286Y-55678571D02*
X153214286Y-54178571D01*
X153071429Y-54392857D01*
X152928571Y-54535714D01*
X152785714Y-54607143D01*
X175178572Y-69607143D02*
X175392858Y-69678571D01*
X175750001Y-69678571D01*
X175892858Y-69607143D01*
X175964287Y-69535714D01*
X176035715Y-69392857D01*
X176035715Y-69250000D01*
X175964287Y-69107143D01*
X175892858Y-69035714D01*
X175750001Y-68964286D01*
X175464287Y-68892857D01*
X175321429Y-68821429D01*
X175250001Y-68750000D01*
X175178572Y-68607143D01*
X175178572Y-68464286D01*
X175250001Y-68321429D01*
X175321429Y-68250000D01*
X175464287Y-68178571D01*
X175821429Y-68178571D01*
X176035715Y-68250000D01*
X176678572Y-69678571D02*
X176678572Y-68178571D01*
X177035715Y-68178571D01*
X177250000Y-68250000D01*
X177392858Y-68392857D01*
X177464286Y-68535714D01*
X177535715Y-68821429D01*
X177535715Y-69035714D01*
X177464286Y-69321429D01*
X177392858Y-69464286D01*
X177250000Y-69607143D01*
X177035715Y-69678571D01*
X176678572Y-69678571D01*
X178107143Y-69250000D02*
X178821429Y-69250000D01*
X177964286Y-69678571D02*
X178464286Y-68178571D01*
X178964286Y-69678571D01*
X175214286Y-67107143D02*
X175428572Y-67178571D01*
X175785715Y-67178571D01*
X175928572Y-67107143D01*
X176000001Y-67035714D01*
X176071429Y-66892857D01*
X176071429Y-66750000D01*
X176000001Y-66607143D01*
X175928572Y-66535714D01*
X175785715Y-66464286D01*
X175500001Y-66392857D01*
X175357143Y-66321429D01*
X175285715Y-66250000D01*
X175214286Y-66107143D01*
X175214286Y-65964286D01*
X175285715Y-65821429D01*
X175357143Y-65750000D01*
X175500001Y-65678571D01*
X175857143Y-65678571D01*
X176071429Y-65750000D01*
X177571429Y-67035714D02*
X177500000Y-67107143D01*
X177285714Y-67178571D01*
X177142857Y-67178571D01*
X176928572Y-67107143D01*
X176785714Y-66964286D01*
X176714286Y-66821429D01*
X176642857Y-66535714D01*
X176642857Y-66321429D01*
X176714286Y-66035714D01*
X176785714Y-65892857D01*
X176928572Y-65750000D01*
X177142857Y-65678571D01*
X177285714Y-65678571D01*
X177500000Y-65750000D01*
X177571429Y-65821429D01*
X178928572Y-67178571D02*
X178214286Y-67178571D01*
X178214286Y-65678571D01*
X176107143Y-63250000D02*
X175964286Y-63178571D01*
X175750000Y-63178571D01*
X175535715Y-63250000D01*
X175392857Y-63392857D01*
X175321429Y-63535714D01*
X175250000Y-63821429D01*
X175250000Y-64035714D01*
X175321429Y-64321429D01*
X175392857Y-64464286D01*
X175535715Y-64607143D01*
X175750000Y-64678571D01*
X175892857Y-64678571D01*
X176107143Y-64607143D01*
X176178572Y-64535714D01*
X176178572Y-64035714D01*
X175892857Y-64035714D01*
X176821429Y-64678571D02*
X176821429Y-63178571D01*
X177678572Y-64678571D01*
X177678572Y-63178571D01*
X178392858Y-64678571D02*
X178392858Y-63178571D01*
X178750001Y-63178571D01*
X178964286Y-63250000D01*
X179107144Y-63392857D01*
X179178572Y-63535714D01*
X179250001Y-63821429D01*
X179250001Y-64035714D01*
X179178572Y-64321429D01*
X179107144Y-64464286D01*
X178964286Y-64607143D01*
X178750001Y-64678571D01*
X178392858Y-64678571D01*
X175392857Y-61750000D02*
X176107143Y-61750000D01*
X175250000Y-62178571D02*
X175750000Y-60678571D01*
X176250000Y-62178571D01*
X176750000Y-62178571D02*
X176750000Y-60678571D01*
X177107143Y-60678571D01*
X177321428Y-60750000D01*
X177464286Y-60892857D01*
X177535714Y-61035714D01*
X177607143Y-61321429D01*
X177607143Y-61535714D01*
X177535714Y-61821429D01*
X177464286Y-61964286D01*
X177321428Y-62107143D01*
X177107143Y-62178571D01*
X176750000Y-62178571D01*
X178250000Y-62178571D02*
X178250000Y-60678571D01*
X178607143Y-60678571D01*
X178821428Y-60750000D01*
X178964286Y-60892857D01*
X179035714Y-61035714D01*
X179107143Y-61321429D01*
X179107143Y-61535714D01*
X179035714Y-61821429D01*
X178964286Y-61964286D01*
X178821428Y-62107143D01*
X178607143Y-62178571D01*
X178250000Y-62178571D01*
X180607143Y-62178571D02*
X180107143Y-61464286D01*
X179750000Y-62178571D02*
X179750000Y-60678571D01*
X180321428Y-60678571D01*
X180464286Y-60750000D01*
X180535714Y-60821429D01*
X180607143Y-60964286D01*
X180607143Y-61178571D01*
X180535714Y-61321429D01*
X180464286Y-61392857D01*
X180321428Y-61464286D01*
X179750000Y-61464286D01*
X175250000Y-57928571D02*
X175750000Y-59428571D01*
X176250000Y-57928571D01*
X177607143Y-59285714D02*
X177535714Y-59357143D01*
X177321428Y-59428571D01*
X177178571Y-59428571D01*
X176964286Y-59357143D01*
X176821428Y-59214286D01*
X176750000Y-59071429D01*
X176678571Y-58785714D01*
X176678571Y-58571429D01*
X176750000Y-58285714D01*
X176821428Y-58142857D01*
X176964286Y-58000000D01*
X177178571Y-57928571D01*
X177321428Y-57928571D01*
X177535714Y-58000000D01*
X177607143Y-58071429D01*
X179107143Y-59285714D02*
X179035714Y-59357143D01*
X178821428Y-59428571D01*
X178678571Y-59428571D01*
X178464286Y-59357143D01*
X178321428Y-59214286D01*
X178250000Y-59071429D01*
X178178571Y-58785714D01*
X178178571Y-58571429D01*
X178250000Y-58285714D01*
X178321428Y-58142857D01*
X178464286Y-58000000D01*
X178678571Y-57928571D01*
X178821428Y-57928571D01*
X179035714Y-58000000D01*
X179107143Y-58071429D01*
X148428571Y-71964285D02*
X148428571Y-72678571D01*
X146928571Y-72678571D01*
X148428571Y-71464285D02*
X146928571Y-71464285D01*
X147000000Y-69964285D02*
X146928571Y-70107142D01*
X146928571Y-70321428D01*
X147000000Y-70535713D01*
X147142857Y-70678571D01*
X147285714Y-70749999D01*
X147571429Y-70821428D01*
X147785714Y-70821428D01*
X148071429Y-70749999D01*
X148214286Y-70678571D01*
X148357143Y-70535713D01*
X148428571Y-70321428D01*
X148428571Y-70178571D01*
X148357143Y-69964285D01*
X148285714Y-69892856D01*
X147785714Y-69892856D01*
X147785714Y-70178571D01*
X148428571Y-69249999D02*
X146928571Y-69249999D01*
X147642857Y-69249999D02*
X147642857Y-68392856D01*
X148428571Y-68392856D02*
X146928571Y-68392856D01*
X146928571Y-67892856D02*
X146928571Y-67035713D01*
X148428571Y-67464284D02*
X146928571Y-67464284D01*
X148357143Y-65464285D02*
X148428571Y-65249999D01*
X148428571Y-64892856D01*
X148357143Y-64749999D01*
X148285714Y-64678570D01*
X148142857Y-64607142D01*
X148000000Y-64607142D01*
X147857143Y-64678570D01*
X147785714Y-64749999D01*
X147714286Y-64892856D01*
X147642857Y-65178570D01*
X147571429Y-65321428D01*
X147500000Y-65392856D01*
X147357143Y-65464285D01*
X147214286Y-65464285D01*
X147071429Y-65392856D01*
X147000000Y-65321428D01*
X146928571Y-65178570D01*
X146928571Y-64821428D01*
X147000000Y-64607142D01*
X147642857Y-63964285D02*
X147642857Y-63464285D01*
X148428571Y-63249999D02*
X148428571Y-63964285D01*
X146928571Y-63964285D01*
X146928571Y-63249999D01*
X148428571Y-62607142D02*
X146928571Y-62607142D01*
X148428571Y-61749999D01*
X146928571Y-61749999D01*
X148357143Y-61107142D02*
X148428571Y-60892856D01*
X148428571Y-60535713D01*
X148357143Y-60392856D01*
X148285714Y-60321427D01*
X148142857Y-60249999D01*
X148000000Y-60249999D01*
X147857143Y-60321427D01*
X147785714Y-60392856D01*
X147714286Y-60535713D01*
X147642857Y-60821427D01*
X147571429Y-60964285D01*
X147500000Y-61035713D01*
X147357143Y-61107142D01*
X147214286Y-61107142D01*
X147071429Y-61035713D01*
X147000000Y-60964285D01*
X146928571Y-60821427D01*
X146928571Y-60464285D01*
X147000000Y-60249999D01*
X146928571Y-59321428D02*
X146928571Y-59035714D01*
X147000000Y-58892856D01*
X147142857Y-58749999D01*
X147428571Y-58678571D01*
X147928571Y-58678571D01*
X148214286Y-58749999D01*
X148357143Y-58892856D01*
X148428571Y-59035714D01*
X148428571Y-59321428D01*
X148357143Y-59464285D01*
X148214286Y-59607142D01*
X147928571Y-59678571D01*
X147428571Y-59678571D01*
X147142857Y-59607142D01*
X147000000Y-59464285D01*
X146928571Y-59321428D01*
X148428571Y-57178570D02*
X147714286Y-57678570D01*
X148428571Y-58035713D02*
X146928571Y-58035713D01*
X146928571Y-57464285D01*
X147000000Y-57321427D01*
X147071429Y-57249999D01*
X147214286Y-57178570D01*
X147428571Y-57178570D01*
X147571429Y-57249999D01*
X147642857Y-57321427D01*
X147714286Y-57464285D01*
X147714286Y-58035713D01*
X148357143Y-56607142D02*
X148428571Y-56392856D01*
X148428571Y-56035713D01*
X148357143Y-55892856D01*
X148285714Y-55821427D01*
X148142857Y-55749999D01*
X148000000Y-55749999D01*
X147857143Y-55821427D01*
X147785714Y-55892856D01*
X147714286Y-56035713D01*
X147642857Y-56321427D01*
X147571429Y-56464285D01*
X147500000Y-56535713D01*
X147357143Y-56607142D01*
X147214286Y-56607142D01*
X147071429Y-56535713D01*
X147000000Y-56464285D01*
X146928571Y-56321427D01*
X146928571Y-55964285D01*
X147000000Y-55749999D01*
M02*
