G04 #@! TF.FileFunction,Copper,L2,Bot,Signal*
%FSLAX46Y46*%
G04 Gerber Fmt 4.6, Leading zero omitted, Abs format (unit mm)*
G04 Created by KiCad (PCBNEW 4.0.6-e0-6349~53~ubuntu14.04.1) date Wed May 10 06:37:38 2017*
%MOMM*%
%LPD*%
G01*
G04 APERTURE LIST*
%ADD10C,0.100000*%
%ADD11R,2.000000X2.000000*%
%ADD12R,2.000000X1.700000*%
%ADD13O,2.000000X1.700000*%
%ADD14O,2.000000X4.000000*%
%ADD15O,4.000000X2.000000*%
%ADD16R,4.000000X2.000000*%
%ADD17C,4.064000*%
%ADD18C,1.200000*%
%ADD19C,1.000000*%
%ADD20C,0.750000*%
G04 APERTURE END LIST*
D10*
D11*
X139250000Y-108750000D03*
D12*
X128250000Y-109500000D03*
D13*
X128250000Y-112040000D03*
D14*
X185000000Y-98000000D03*
X187540000Y-98000000D03*
X190080000Y-98000000D03*
X192620000Y-98000000D03*
X195160000Y-98000000D03*
D15*
X184000000Y-57500000D03*
X184000000Y-60040000D03*
X184000000Y-62580000D03*
X184000000Y-65120000D03*
X184000000Y-67660000D03*
X184000000Y-70200000D03*
X184000000Y-72740000D03*
X184000000Y-75280000D03*
X152500000Y-69000000D03*
X152500000Y-66460000D03*
X152500000Y-63920000D03*
X152500000Y-61380000D03*
X152500000Y-58840000D03*
X159000000Y-69000000D03*
X159000000Y-66460000D03*
X159000000Y-63920000D03*
X159000000Y-61380000D03*
X159000000Y-58840000D03*
X165500000Y-69000000D03*
X165500000Y-66460000D03*
X165500000Y-63920000D03*
X165500000Y-61380000D03*
X165500000Y-58840000D03*
X172000000Y-69000000D03*
X172000000Y-66460000D03*
X172000000Y-63920000D03*
X172000000Y-61380000D03*
X172000000Y-58840000D03*
D14*
X193500000Y-105000000D03*
X190960000Y-105000000D03*
X188420000Y-105000000D03*
X185880000Y-105000000D03*
X132750000Y-103000000D03*
X135290000Y-103000000D03*
X137830000Y-103000000D03*
X140370000Y-103000000D03*
D16*
X170000000Y-119250000D03*
D15*
X170000000Y-116710000D03*
X170000000Y-114170000D03*
X170000000Y-111630000D03*
X170000000Y-109090000D03*
X170000000Y-106550000D03*
X170000000Y-104010000D03*
X170000000Y-101470000D03*
X170000000Y-98930000D03*
X170000000Y-96390000D03*
X170000000Y-93850000D03*
X170000000Y-91310000D03*
X170000000Y-88770000D03*
X170000000Y-86230000D03*
X170000000Y-83690000D03*
X154760000Y-83690000D03*
X154760000Y-86230000D03*
X154760000Y-88770000D03*
X154760000Y-91310000D03*
X154760000Y-93850000D03*
X154760000Y-96390000D03*
X154760000Y-98930000D03*
X154760000Y-101470000D03*
X154760000Y-104010000D03*
X154760000Y-106550000D03*
X154760000Y-109090000D03*
X154760000Y-111630000D03*
X154760000Y-114170000D03*
X154760000Y-116710000D03*
X154760000Y-119250000D03*
D16*
X142000000Y-72000000D03*
D15*
X134380000Y-54220000D03*
X142000000Y-69460000D03*
X134380000Y-56760000D03*
X142000000Y-66920000D03*
X134380000Y-59300000D03*
X142000000Y-64380000D03*
X134380000Y-61840000D03*
X142000000Y-61840000D03*
X134380000Y-64380000D03*
X142000000Y-59300000D03*
X134380000Y-66920000D03*
X142000000Y-56760000D03*
X134380000Y-69460000D03*
X142000000Y-54220000D03*
X134380000Y-72000000D03*
D17*
X196500000Y-122500000D03*
X196500000Y-52500000D03*
X126500000Y-52500000D03*
X126500000Y-122500000D03*
D18*
X192500000Y-86250000D03*
D19*
X170000000Y-83690000D02*
X165810000Y-83690000D01*
X126500000Y-109500000D02*
X128250000Y-109500000D01*
X125000000Y-111000000D02*
X126500000Y-109500000D01*
X125000000Y-114500000D02*
X125000000Y-111000000D01*
X133500000Y-123000000D02*
X125000000Y-114500000D01*
X158750000Y-123000000D02*
X133500000Y-123000000D01*
X162250000Y-119500000D02*
X158750000Y-123000000D01*
X162250000Y-87250000D02*
X162250000Y-119500000D01*
X165810000Y-83690000D02*
X162250000Y-87250000D01*
X192500000Y-86250000D02*
X192620000Y-86250000D01*
X192620000Y-86250000D02*
X192500000Y-86250000D01*
X192500000Y-86250000D02*
X192620000Y-86250000D01*
X128250000Y-112040000D02*
X132460000Y-112040000D01*
X135290000Y-109210000D02*
X135290000Y-103000000D01*
X132460000Y-112040000D02*
X135290000Y-109210000D01*
X135290000Y-103000000D02*
X135290000Y-95210000D01*
X139190000Y-91310000D02*
X154760000Y-91310000D01*
X135290000Y-95210000D02*
X139190000Y-91310000D01*
X192620000Y-98000000D02*
X192620000Y-100630000D01*
X190960000Y-102290000D02*
X190960000Y-105000000D01*
X192620000Y-100630000D02*
X190960000Y-102290000D01*
X184000000Y-60040000D02*
X189040000Y-60040000D01*
X192620000Y-63620000D02*
X192620000Y-86250000D01*
X192620000Y-86250000D02*
X192620000Y-98000000D01*
X189040000Y-60040000D02*
X192620000Y-63620000D01*
X152500000Y-61380000D02*
X152500000Y-63920000D01*
X159000000Y-61380000D02*
X159000000Y-63920000D01*
X165500000Y-61380000D02*
X165500000Y-63920000D01*
X172000000Y-61380000D02*
X172000000Y-63920000D01*
X152500000Y-61380000D02*
X159000000Y-61380000D01*
X159000000Y-61380000D02*
X165500000Y-61380000D01*
X165500000Y-61380000D02*
X172000000Y-61380000D01*
X172000000Y-61380000D02*
X172120000Y-61500000D01*
X172120000Y-61500000D02*
X176250000Y-61500000D01*
X176250000Y-61500000D02*
X177710000Y-60040000D01*
X177710000Y-60040000D02*
X184000000Y-60040000D01*
X142000000Y-59300000D02*
X145800000Y-59300000D01*
X147880000Y-61380000D02*
X152500000Y-61380000D01*
X145800000Y-59300000D02*
X147880000Y-61380000D01*
X142000000Y-59300000D02*
X142000000Y-56760000D01*
X142000000Y-56760000D02*
X142000000Y-54220000D01*
X170000000Y-101470000D02*
X178220000Y-101470000D01*
X188420000Y-107580000D02*
X188420000Y-105000000D01*
X187250000Y-108750000D02*
X188420000Y-107580000D01*
X183500000Y-108750000D02*
X187250000Y-108750000D01*
X179750000Y-105000000D02*
X183500000Y-108750000D01*
X179750000Y-103000000D02*
X179750000Y-105000000D01*
X178220000Y-101470000D02*
X179750000Y-103000000D01*
X187540000Y-98000000D02*
X187540000Y-100790000D01*
X188420000Y-101670000D02*
X188420000Y-105000000D01*
X187540000Y-100790000D02*
X188420000Y-101670000D01*
X187540000Y-98000000D02*
X187540000Y-66040000D01*
X186620000Y-65120000D02*
X184000000Y-65120000D01*
X187540000Y-66040000D02*
X186620000Y-65120000D01*
X184000000Y-65120000D02*
X180130000Y-65120000D01*
X139830000Y-66920000D02*
X142000000Y-66920000D01*
X138250000Y-68500000D02*
X139830000Y-66920000D01*
X138250000Y-74250000D02*
X138250000Y-68500000D01*
X141000000Y-77000000D02*
X138250000Y-74250000D01*
X171000000Y-77000000D02*
X141000000Y-77000000D01*
X176000000Y-72000000D02*
X171000000Y-77000000D01*
X176000000Y-69250000D02*
X176000000Y-72000000D01*
X180130000Y-65120000D02*
X176000000Y-69250000D01*
X185880000Y-105000000D02*
X183750000Y-105000000D01*
X179930000Y-98930000D02*
X170000000Y-98930000D01*
X181750000Y-100750000D02*
X179930000Y-98930000D01*
X181750000Y-103000000D02*
X181750000Y-100750000D01*
X183750000Y-105000000D02*
X181750000Y-103000000D01*
X190080000Y-98000000D02*
X190080000Y-64830000D01*
X187830000Y-62580000D02*
X184000000Y-62580000D01*
X190080000Y-64830000D02*
X187830000Y-62580000D01*
X159000000Y-66460000D02*
X152500000Y-66460000D01*
X165500000Y-66460000D02*
X159000000Y-66460000D01*
X175540000Y-66460000D02*
X165500000Y-66460000D01*
X179420000Y-62580000D02*
X175540000Y-66460000D01*
X184000000Y-62580000D02*
X179420000Y-62580000D01*
X170000000Y-116710000D02*
X190290000Y-116710000D01*
X193500000Y-113500000D02*
X193500000Y-105000000D01*
X190290000Y-116710000D02*
X193500000Y-113500000D01*
X195160000Y-98000000D02*
X195160000Y-103340000D01*
X195160000Y-103340000D02*
X193500000Y-105000000D01*
X184000000Y-57500000D02*
X191500000Y-57500000D01*
X195160000Y-61160000D02*
X195160000Y-98000000D01*
X191500000Y-57500000D02*
X195160000Y-61160000D01*
X184000000Y-57500000D02*
X177500000Y-57500000D01*
X176160000Y-58840000D02*
X165500000Y-58840000D01*
X177500000Y-57500000D02*
X176160000Y-58840000D01*
X165500000Y-58840000D02*
X159000000Y-58840000D01*
X159000000Y-58840000D02*
X152500000Y-58840000D01*
X132750000Y-103000000D02*
X132750000Y-83250000D01*
X132750000Y-83250000D02*
X137375000Y-78625000D01*
X170000000Y-91310000D02*
X172440000Y-91310000D01*
X134380000Y-75630000D02*
X134380000Y-72000000D01*
X137500000Y-78750000D02*
X137375000Y-78625000D01*
X137375000Y-78625000D02*
X134380000Y-75630000D01*
X172000000Y-78750000D02*
X137500000Y-78750000D01*
X174250000Y-81000000D02*
X172000000Y-78750000D01*
X174250000Y-89500000D02*
X174250000Y-81000000D01*
X172440000Y-91310000D02*
X174250000Y-89500000D01*
X154760000Y-109090000D02*
X148590000Y-109090000D01*
X137830000Y-100420000D02*
X137830000Y-103000000D01*
X139250000Y-99000000D02*
X137830000Y-100420000D01*
X142000000Y-99000000D02*
X139250000Y-99000000D01*
X143500000Y-100500000D02*
X142000000Y-99000000D01*
X143500000Y-104000000D02*
X143500000Y-100500000D01*
X148590000Y-109090000D02*
X143500000Y-104000000D01*
X140370000Y-103000000D02*
X140370000Y-107630000D01*
X140370000Y-107630000D02*
X139250000Y-108750000D01*
D20*
X140500000Y-103130000D02*
X140370000Y-103000000D01*
X140500000Y-103130000D02*
X140370000Y-103000000D01*
X140500000Y-103130000D02*
X140370000Y-103000000D01*
D19*
X142000000Y-61840000D02*
X145590000Y-61840000D01*
X150250000Y-69000000D02*
X152500000Y-69000000D01*
X148750000Y-67500000D02*
X150250000Y-69000000D01*
X148750000Y-65000000D02*
X148750000Y-67500000D01*
X145590000Y-61840000D02*
X148750000Y-65000000D01*
X142000000Y-64380000D02*
X145380000Y-64380000D01*
X156250000Y-71750000D02*
X159000000Y-69000000D01*
X150000000Y-71750000D02*
X156250000Y-71750000D01*
X147000000Y-68750000D02*
X150000000Y-71750000D01*
X147000000Y-66000000D02*
X147000000Y-68750000D01*
X145380000Y-64380000D02*
X147000000Y-66000000D01*
X142000000Y-69460000D02*
X145210000Y-69460000D01*
X165500000Y-71250000D02*
X165500000Y-69000000D01*
X163250000Y-73500000D02*
X165500000Y-71250000D01*
X149250000Y-73500000D02*
X163250000Y-73500000D01*
X145210000Y-69460000D02*
X149250000Y-73500000D01*
X142000000Y-72000000D02*
X145250000Y-72000000D01*
X172000000Y-73250000D02*
X172000000Y-69000000D01*
X170000000Y-75250000D02*
X172000000Y-73250000D01*
X148500000Y-75250000D02*
X170000000Y-75250000D01*
X145250000Y-72000000D02*
X148500000Y-75250000D01*
M02*
